<svg id="Capa_1" enable-background="new 0 0 512 512" height="512" viewBox="0 0 512 512" width="512" xmlns="http://www.w3.org/2000/svg"><g><circle cx="256" cy="256" fill="#5169cd" r="256"/><path d="m512 256c0 141.382-114.618 256-256 256-6.779 0-13.506-.268-20.15-.783 131.956-10.281 235.839-120.624 235.839-255.217s-103.883-244.936-235.839-255.217c6.644-.515 13.371-.783 20.15-.783 141.382 0 256 114.618 256 256z" fill="#3351c5"/><circle cx="256" cy="256" fill="#bec7ec" r="223.783"/><path d="m479.781 256c0 123.589-100.192 223.781-223.781 223.781-7.45 0-14.814-.363-22.071-1.08 113.221-11.083 201.699-106.562 201.699-222.701s-88.478-211.618-201.699-222.702c7.257-.716 14.622-1.08 22.071-1.08 123.589.001 223.781 100.193 223.781 223.782z" fill="#a3afe4"/><g><circle cx="256" cy="256" fill="#213993" r="187.727"/></g><path d="m256.047 114.006-87.891 144.926c-1.304 2.15-.58 4.95 1.605 6.194 15.588 8.883 72.165 41.126 84.076 47.914 1.371.781 3.051.781 4.422-.001l83.98-47.861c2.183-1.244 2.911-4.044 1.609-6.194z" fill="#192d7b"/><path d="m362.336 294.191-97.574 142.874c-4.129 6.046-13.07 5.976-17.104-.134l-94.015-142.393c-4.425-6.702 3.676-14.576 10.249-9.963l86.4 60.634c3.503 2.458 8.161 2.495 11.702.092l90.251-61.233c6.645-4.508 14.62 3.491 10.091 10.123z" fill="#192d7b"/><g><path d="m443.73 256c0 103.513-84.217 187.73-187.73 187.73-9.127 0-18.1-.659-26.878-1.916 90.821-13.084 160.843-91.429 160.843-185.814s-70.022-172.73-160.843-185.814c8.777-1.257 17.75-1.916 26.878-1.916 103.513 0 187.73 84.217 187.73 187.73z" fill="#192d7b"/></g><path d="m341.58 244.113-83.03 47.319c-1.581.901-3.52.901-5.101 0l-83.03-47.319c-2.518-1.435-3.357-4.664-1.855-7.143l83.03-137.102c2.005-3.31 6.807-3.31 8.812 0l83.03 137.102c1.501 2.479.662 5.708-1.856 7.143z" fill="#27e19d"/><path d="m266.302 109.601v102.307l-8.005-3.997c-1.442-.721-3.152-.721-4.595 0l-78.325 39.023-4.955-2.823c-2.524-1.432-3.358-4.667-1.854-7.139l83.022-137.107c1.01-1.648 2.709-2.483 4.409-2.483s3.4.835 4.409 2.483z" fill="#27e19d"/><path d="m341.577 244.112-5.038 2.874-78.242-39.075c-.721-.361-1.514-.536-2.297-.536v-109.992c1.7 0 3.4.835 4.409 2.483l83.022 137.107c1.505 2.472.67 5.707-1.854 7.139z" fill="#26d192"/><path d="m341.577 244.112-5.038 2.874-14.062-7.026-66.477-109.621v-32.956c1.7 0 3.4.835 4.409 2.483l83.022 137.107c1.505 2.472.67 5.707-1.854 7.139z" fill="#1ec186"/><path d="m266.302 201.606v85.402l-7.747 4.42c-1.587.907-3.523.907-5.11 0l-83.022-47.316c-1.442-.814-2.339-2.225-2.555-3.739l85.835-42.763c1.442-.721 3.152-.721 4.595 0z" fill="#72f4c3"/><path d="m344.122 240.465c-.247 1.484-1.133 2.843-2.545 3.647l-83.022 47.316c-.793.453-1.669.68-2.555.68v-95.034c.783 0 1.576.175 2.297.536z" fill="#23f1a8"/><path d="m344.122 240.465c-.247 1.484-1.133 2.843-2.545 3.647l-83.022 47.316c-.793.453-1.669.68-2.555.68v-17.596l54.586-31.108c1.431-.816 1.374-2.897-.099-3.633l-54.487-27.214v-15.484c.783 0 1.576.175 2.297.536z" fill="#27e19d"/><g><path d="m266.302 320.623v82.188l-8.551 13.773c-.804 1.298-2.699 1.298-3.503 0l-83.949-135.088c-1.133-1.813.927-3.946 2.781-2.864l81.889 47.337c.639.361 1.422.361 2.06 0z" fill="#27e19d"/><path d="m341.495 281.703-83.743 134.882c-.402.649-1.071.968-1.751.968v-91.315c.35 0 .711-.082 1.03-.268l81.683-47.141c1.854-1.072 3.904 1.051 2.781 2.874z" fill="#26d192"/><path d="m341.495 281.703-83.743 134.882c-.402.649-1.071.968-1.751.968v-30.998l58.04-93.479.072-.052 24.601-14.196c1.854-1.071 3.904 1.052 2.781 2.875z" fill="#1ec186"/></g></g></svg>