<svg height="491pt" viewBox="0 0 491.99888 491" width="491pt" xmlns="http://www.w3.org/2000/svg"><g fill="#0635c9"><path d="m206.9375 54.214844v12.777344c.109375 20.878906 17.066406 37.75 37.945312 37.75 20.878907 0 37.835938-16.871094 37.941407-37.75v-12.777344c-.105469-20.878906-17.0625-37.746094-37.941407-37.746094-20.878906 0-37.835937 16.867188-37.945312 37.746094zm63.886719 0v12.777344c-.089844 14.265624-11.675781 25.78125-25.941407 25.78125-14.265624 0-25.855468-11.515626-25.945312-25.78125v-12.777344c.089844-14.265625 11.679688-25.78125 25.945312-25.78125 14.265626 0 25.851563 11.515625 25.941407 25.78125zm0 0"/><path d="m296.105469 108.433594c-.347657-.035156-1.410157-.140625-29.367188-.199219-2.15625-.015625-4.152343 1.136719-5.214843 3.015625l-15.390626 26.824219-14.558593-26.710938c-1.050781-1.929687-3.070313-3.128906-5.265625-3.128906h-26.457032c-21.632812.023437-39.164062 17.550781-39.191406 39.183594 0 1.113281.164063 78.421875.167969 81.699219.007813 13.042968 10.578125 23.613281 23.617187 23.613281h.273438c4.082031-.046875 8.082031-1.179688 11.582031-3.277344l1.074219 116.199219c.03125 3.292968 2.707031 5.945312 6 5.945312h.054688c3.3125-.03125 5.976562-2.742187 5.945312-6.054687l-1.199219-130.132813-.101562-6.875c-.050781-3.28125-2.722657-5.910156-6-5.910156h-.046875c-3.292969.023438-5.953125 2.703125-5.953125 6 .105469 6.5-5.011719 11.886719-11.507813 12.109375h-.109375c-3.085937 0-6.042969-1.222656-8.226562-3.402344-2.179688-2.183593-3.402344-5.140625-3.402344-8.226562 0-.804688-.167969-80.589844-.167969-81.6875.019532-15.007813 12.183594-27.167969 27.191406-27.183594h22.890626l17.988281 33.003906c1.039062 1.90625 3.03125 3.105469 5.203125 3.128907 2.171875.023437 4.1875-1.128907 5.269531-3.015626l19-33.109374c9.933594.023437 23.101563.078124 24.816406.140624 14.882813 1.578126 25.691407 14.890626 24.179688 29.777344-.019531.199219-.03125.402344-.03125.601563v78.34375c.015625 6.351562-5.070313 11.542969-11.421875 11.65625-6.351563.117187-11.621094-4.878907-11.84375-11.230469l-.007813-.523438c-.027343-3.3125-2.734375-5.976562-6.050781-5.949218-3.3125.027344-5.976562 2.734375-5.949219 6.050781 0 .242187 0 .484375.011719.726563l.089844 5.621093-.941406 30.128907c-.085938 3.300781 2.511718 6.054687 5.8125 6.15625 3.300781.101562 6.0625-2.480469 6.183593-5.78125l.511719-16.476563c7.308594 4.292969 16.355469 4.347656 23.710938.136719 7.355468-4.210938 11.894531-12.039063 11.890624-20.511719v-78.050781c1.996094-21.425782-13.65625-40.453125-35.0625-42.625zm0 0"/><path d="m381.648438 34.449219v11.179687c0 18.75 15.203124 33.949219 33.953124 33.949219s33.949219-15.199219 33.949219-33.949219v-11.179687c0-18.75-15.199219-33.949219-33.949219-33.949219s-33.953124 15.199219-33.953124 33.949219zm55.902343 0v11.179687c0 12.125-9.828125 21.949219-21.949219 21.949219-12.125 0-21.953124-9.824219-21.953124-21.949219v-11.179687c0-12.121094 9.828124-21.949219 21.953124-21.949219 12.121094 0 21.949219 9.828125 21.949219 21.949219zm0 0"/><path d="m460.492188 81.144531c-.347657-.035156-1.265626-.128906-25.765626-.179687h-.011718c-2.148438.003906-4.132813 1.152344-5.199219 3.015625l-12.800781 22.308593-12.101563-22.199218c-1.050781-1.929688-3.070312-3.128906-5.265625-3.128906h-23.148437c-19.347657 0-35.035157 15.6875-35.039063 35.035156 0 .972656.140625 68.625.148438 71.492187.015625 11.820313 9.589844 21.402344 21.414062 21.417969h.242188c3.304687-.039062 6.554687-.863281 9.476562-2.402344l1.285156 80.171875c.050782 3.277344 2.722657 5.90625 6 5.90625h.097657c3.3125-.054687 5.953125-2.785156 5.902343-6.097656l-1.5-93.5-.089843-6.015625c-.050781-3.277344-2.722657-5.910156-6-5.910156h-.046875c-3.296875.027344-5.957032 2.703125-5.957032 6 .105469 5.246094-3.992187 9.613281-9.234374 9.847656h-.171876c-5.203124-.007812-9.414062-4.226562-9.417968-9.425781 0-.707031-.148438-70.515625-.148438-71.476563 0-12.722656 10.316406-23.039062 23.039063-23.039062h19.585937l15.527344 28.488281c1.039062 1.90625 3.027344 3.105469 5.199219 3.128906 2.167969.003907 4.171875-1.144531 5.269531-3.015625l16.398438-28.59375c8.574218.023438 19.652343.070313 21.230468.125 12.601563 1.347656 21.746094 12.621094 20.464844 25.230469-.019531.199219-.027344.398437-.027344.597656v68.546875c.007813 5.148438-4.109375 9.351563-9.257812 9.449219-5.144532.097656-9.417969-3.949219-9.601563-9.09375l-.007812-.453125c-.054688-3.273438-2.722657-5.898438-6-5.898438h-.050781c-3.292969.027344-5.949219 2.703126-5.949219 6 0 .21875.003906.4375.007812.65625l.082031 4.898438-3.855468 139.730469c-.195313 1.3125-1.320313 2.28125-2.648438 2.277343h-24.464844c-3.316406 0-6 2.6875-6 6s2.683594 6 6 6h24.46875c7.574219.027344 13.914063-5.734374 14.613282-13.277343.011718-.132813.019531-.269531.023437-.40625l3.5-126.78125c6.644531 3.378906 14.566407 3.0625 20.917969-.832031 6.355469-3.898438 10.226562-10.816407 10.226562-18.269532v-68.253906c1.765626-19.144531-12.230468-36.136719-31.359374-38.074219zm0 0"/><path d="m40.492188 34.449219v11.179687c0 18.75 15.199218 33.949219 33.949218 33.949219s33.953125-15.199219 33.953125-33.949219v-11.179687c0-18.75-15.203125-33.949219-33.953125-33.949219s-33.949218 15.199219-33.949218 33.949219zm55.902343 0v11.179687c0 12.125-9.828125 21.949219-21.953125 21.949219-12.121094 0-21.949218-9.824219-21.949218-21.949219v-11.179687c0-12.121094 9.828124-21.949219 21.949218-21.949219 12.125 0 21.953125 9.828125 21.953125 21.949219zm0 0"/><path d="m119.335938 81.144531c-.347657-.035156-1.269532-.128906-25.765626-.179687h-.011718c-2.152344 0-4.136719 1.152344-5.207032 3.015625l-12.796874 22.308593-12.101563-22.199218c-1.050781-1.929688-3.070313-3.128906-5.269531-3.128906h-23.144532c-19.351562 0-35.039062 15.691406-35.039062 35.042968 0 .976563.140625 68.625.148438 71.492188.019531 11.820312 9.597656 21.394531 21.414062 21.410156h.246094c3.375-.039062 6.6875-.894531 9.65625-2.492188l3.75 126.980469c0 .136719.015625.273438.027344.410157.714843 7.523437 7.046874 13.265624 14.609374 13.242187h51.566407c7.574219.027344 13.914062-5.734375 14.609375-13.277344.011718-.136719.023437-.269531.027344-.40625l3.5-126.78125c6.640624 3.378907 14.5625 3.0625 20.917968-.832031 6.351563-3.898438 10.222656-10.816406 10.222656-18.269531v-68.261719c1.742188-19.136719-12.242187-36.117188-31.359374-38.074219zm19.386718 37.183594c-.019531.199219-.03125.398437-.03125.597656v68.546875c.011719 5.148438-4.105468 9.355469-9.253906 9.453125-5.144531.09375-9.417969-3.953125-9.601562-9.097656l-.007813-.453125c-.054687-3.273438-2.726563-5.898438-6-5.898438h-.050781c-3.292969.027344-5.949219 2.707032-5.949219 6 0 .21875 0 .4375.007813.652344l.078124 4.910156-3.851562 139.730469c-.195312 1.308594-1.320312 2.277344-2.648438 2.273438h-51.5625c-1.324218.003906-2.449218-.960938-2.648437-2.269531l-4.132813-139.792969-.089843-6.015625c-.027344-3.3125-2.730469-5.980469-6.046875-5.953125-3.3125.023437-5.980469 2.730469-5.953125 6.042969.101562 5.246093-4 9.617187-9.242188 9.847656h-.171875c-5.203125-.007813-9.417968-4.222656-9.417968-9.425782 0-.707031-.148438-70.515624-.148438-71.476562 0-12.722656 10.316406-23.035156 23.039062-23.035156h19.585938l15.527344 28.488281c1.039062 1.90625 3.027344 3.101563 5.199218 3.128906h.066407c2.148437-.003906 4.132812-1.152343 5.199219-3.015625l16.402343-28.59375c8.574219.023438 19.652344.070313 21.226563.121094 12.597656 1.359375 21.738281 12.625 20.476562 25.234375zm0 0"/></g><path d="m313 290.140625c-46.707031 0-84.574219 37.863281-84.574219 84.570313 0 46.707031 37.867188 84.574218 84.574219 84.574218s84.570312-37.867187 84.570312-84.574218c-.050781-46.6875-37.886718-84.519532-84.570312-84.570313zm0 157.140625c-40.082031 0-72.574219-32.488281-72.574219-72.570312 0-40.082032 32.492188-72.574219 72.574219-72.574219 40.078125 0 72.570312 32.492187 72.570312 72.574219-.042968 40.0625-32.507812 72.527343-72.570312 72.570312zm0 0" fill="#1ae5be"/><path d="m395.40625 293.15625c-.117188-.164062-.246094-.320312-.382812-.46875-.148438-.136719-.304688-.265625-.46875-.382812-45.144532-44.792969-117.964844-44.792969-163.109376 0-.164062.117187-.320312.246093-.46875.382812-.136718.148438-.265624.304688-.382812.46875-44.789062 45.140625-44.792969 117.953125-.011719 163.101562.230469.347657.527344.644532.875.871094 45.140625 44.777344 117.945313 44.777344 163.085938 0 .347656-.226562.644531-.523437.875-.871094 44.78125-45.148437 44.777343-117.960937-.011719-163.101562zm16.164062 87.554688h5.253907c-1.339844 23.402343-10.574219 45.660156-26.203125 63.136718l-3.675782-3.679687c-1.511718-1.535157-3.730468-2.144531-5.816406-1.589844-2.082031.550781-3.707031 2.179687-4.261718 4.261719-.550782 2.082031.054687 4.300781 1.59375 5.8125l3.675781 3.679687c-17.472657 15.628907-39.730469 24.863281-63.136719 26.203125v-5.253906c0-3.3125-2.6875-6-6-6s-6 2.6875-6 6v5.253906c-23.402344-1.339844-45.660156-10.574218-63.136719-26.203125l3.679688-3.675781c1.535156-1.511719 2.144531-3.730469 1.589843-5.816406-.550781-2.082032-2.179687-3.710938-4.261718-4.261719-2.082032-.550781-4.300782.054687-5.8125 1.59375l-3.679688 3.675781c-15.625-17.472656-24.863281-39.730468-26.199218-63.136718h5.25c3.316406 0 6-2.683594 6-6 0-3.3125-2.683594-6-6-6h-5.25c1.335937-23.402344 10.574218-45.660157 26.199218-63.132813l3.679688 3.675781c2.339844 2.34375 6.140625 2.34375 8.484375 0s2.34375-6.140625 0-8.484375l-3.679688-3.679687c17.476563-15.625 39.734375-24.863282 63.136719-26.203125v5.253906c0 3.3125 2.6875 6 6 6s6-2.6875 6-6v-5.253906c23.402344 1.339843 45.660156 10.574219 63.136719 26.203125l-3.679688 3.675781c-2.34375 2.34375-2.34375 6.144531 0 8.484375 2.34375 2.34375 6.144531 2.34375 8.484375.003906l3.679688-3.679687c15.625 17.472656 24.863281 39.730469 26.199218 63.136719h-5.25c-3.316406 0-6 2.683593-6 6 0 3.3125 2.683594 6 6 6zm0 0" fill="#1ae5be"/><path d="m327.179688 327.4375v-9.320312c0-3.316407-2.6875-6-6-6s-6 2.683593-6 6v8.613281h-8.027344v-8.613281c0-3.316407-2.683594-6-6-6-3.3125 0-6 2.683593-6 6v8.613281h-9.652344c-3.3125 0-6 2.6875-6 6v84.617187c0 3.3125 2.6875 6 6 6h9.652344v7.957032c0 3.316406 2.6875 6 6 6 3.316406 0 6-2.683594 6-6v-7.957032h8.027344v7.957032c0 3.316406 2.6875 6 6 6s6-2.683594 6-6v-8.664063c11.324218-2.742187 19.304687-12.875 19.320312-24.523437v-3.847657c0-7.410156-3.265625-14.445312-8.925781-19.230469 5.664062-4.785156 8.925781-11.820312 8.925781-19.234374v-3.84375c-.015625-11.652344-7.996094-21.78125-19.320312-24.523438zm7.320312 66.832031v3.847657c-.007812 7.300781-5.925781 13.222656-13.230469 13.230468h-29.769531v-30.308594h29.769531c7.304688.007813 13.222657 5.925782 13.230469 13.230469zm-43-25.230469v-30.308593h29.769531c7.304688.011719 13.222657 5.929687 13.230469 13.230469v3.84375c-.007812 7.304687-5.925781 13.222656-13.230469 13.230468zm0 0" fill="#1ae5be"/><path d="m260.429688 374.710938c.046874-36.195313 26.726562-66.835938 62.570312-71.867188-28.082031-3.945312-55.886719 8.824219-71.195312 32.695312-15.304688 23.871094-15.304688 54.472657 0 78.34375 15.308593 23.871094 43.113281 36.640626 71.195312 32.695313-35.84375-5.03125-62.523438-35.671875-62.570312-71.867187zm0 0" fill="#d4e1f4"/></svg>