<svg height="488pt" viewBox="0 -4 488.00282 488" width="488pt" xmlns="http://www.w3.org/2000/svg"><path d="m319.429688 363.085938c.046874-36.195313 26.726562-66.835938 62.570312-71.867188-28.078125-3.941406-55.882812 8.828125-71.183594 32.699219-15.304687 23.871093-15.304687 54.464843 0 78.335937 15.300782 23.867188 43.105469 36.640625 71.183594 32.699219-35.84375-5.03125-62.523438-35.671875-62.570312-71.867187zm0 0" fill="#d4e1f4"/><path d="m42 201.964844v-165.964844c.015625-13.246094 10.75-23.984375 24-24h-30c-13.25.015625-23.984375 10.753906-24 24v165.964844c.015625 13.25 10.75 23.984375 24 24h30c-13.25-.015625-23.984375-10.75-24-24zm0 0" fill="#d4e1f4"/><g fill="#0635c9"><path d="m319.050781 0h-283.050781c-19.875.0234375-35.9765625 16.128906-36 36v165.964844c.0234375 19.875 16.128906 35.980468 36 36h283.050781c19.875-.019532 35.976563-16.125 36-36v-165.964844c-.023437-19.871094-16.125-35.9765625-36-36zm24 201.964844c-.015625 13.25-10.75 23.984375-24 24h-283.050781c-13.25-.015625-23.984375-10.75-24-24v-165.964844c.015625-13.246094 10.75-23.984375 24-24h283.050781c13.25.015625 23.984375 10.753906 24 24zm0 0"/><path d="m266.980469 130.765625c-5.671875-.003906-11.277344 1.242187-16.414063 3.652344-16.308594-7.621094-35.71875-3.035157-46.886718 11.085937-11.171876 14.117188-11.171876 34.0625 0 48.179688 11.167968 14.121094 30.578124 18.707031 46.886718 11.085937 14.417969 6.734375 31.488282 3.988281 43.066406-6.929687 11.578126-10.914063 15.320313-27.792969 9.445313-42.582032-5.878906-14.789062-20.183594-24.492187-36.097656-24.488281zm-6 38.828125c0 8.296875-3.847657 16.128906-10.414063 21.199219-6.570312-5.070313-10.414062-12.902344-10.414062-21.199219 0-8.300781 3.84375-16.128906 10.414062-21.199219 6.566406 5.070313 10.414063 12.902344 10.414063 21.199219zm-53.65625 0c-.007813-7.894531 3.464843-15.390625 9.496093-20.488281 6.027344-5.097657 13.996094-7.28125 21.78125-5.960938-13.925781 14.886719-13.925781 38.019531 0 52.90625-7.785156 1.316407-15.753906-.867187-21.78125-5.964843-6.027343-5.097657-9.5-12.59375-9.492187-20.488282zm59.65625 26.828125c-1.488281-.003906-2.972657-.128906-4.441407-.375 13.921876-14.886719 13.921876-38.019531 0-52.90625 9.976563-1.675781 20.050782 2.402344 26.050782 10.550781 5.996094 8.148438 6.902344 18.980469 2.335937 28.011719-4.566406 9.027344-13.828125 14.71875-23.945312 14.71875zm0 0"/><path d="m162.828125 196.421875h-10.175781c-3.3125 0-6 2.6875-6 6s2.6875 6 6 6h10.175781c3.3125 0 6-2.6875 6-6s-2.6875-6-6-6zm0 0"/><path d="m131.863281 196.421875h-82.171875c-3.3125 0-6 2.6875-6 6s2.6875 6 6 6h82.171875c3.316407 0 6-2.6875 6-6s-2.683593-6-6-6zm0 0"/><path d="m162.828125 166.875h-79.113281c-3.3125 0-6 2.6875-6 6 0 3.316406 2.6875 6 6 6h79.113281c3.3125 0 6-2.683594 6-6 0-3.3125-2.6875-6-6-6zm0 0"/><path d="m49.691406 178.875h13.234375c3.316407 0 6-2.683594 6-6 0-3.3125-2.683593-6-6-6h-13.234375c-3.3125 0-6 2.6875-6 6 0 3.316406 2.6875 6 6 6zm0 0"/><path d="m49.691406 82.007812h106.566406c3.316407 0 6-2.683593 6-6v-32.238281c0-3.3125-2.683593-6-6-6h-106.566406c-3.3125 0-6 2.6875-6 6v32.238281c0 3.316407 2.6875 6 6 6zm6-32.238281h94.566406v20.238281h-94.566406zm0 0"/><path d="m162.988281 278.84375c-1.714843-1.722656-4.296875-2.242188-6.542969-1.3125-2.246093.925781-3.710937 3.113281-3.710937 5.542969v40.535156c-16.441406 1.222656-53.511719-2.226563-82.515625-50.445313l-4.53125-7.582031c-1.289062-2.152343-3.777344-3.277343-6.242188-2.824219-2.464843.457032-4.386718 2.398438-4.820312 4.867188l-1.523438 8.730469c-.019531.097656-.035156.191406-.042968.285156l-.007813.054687c-1.480469 9.84375-6.570312 60.792969 38.445313 98.128907 2.667968 2.425781 22 18.699219 61.242187 19.957031v39.199219c0 2.425781 1.457031 4.613281 3.695313 5.542969 2.238281.929687 4.816406.421874 6.535156-1.289063l75.453125-75.078125c2.347656-2.335938 2.359375-6.136719.019531-8.484375zm1.746094 140.699219v-30.683594c0-3.316406-2.6875-6-6-6h-1.144531c-39.824219 0-57.792969-16.691406-57.925782-16.816406-.132812-.121094-.273437-.261719-.421874-.382813-32.9375-27.257812-35.628907-63.539062-35-79.523437 14.863281 22.164062 33.117187 37.148437 54.351562 44.589843 13.160156 4.695313 27.261719 6.117188 41.09375 4.152344 2.90625-.46875 5.042969-2.980468 5.042969-5.925781v-31.335937l60.96875 61.265624zm0 0"/></g><path d="m372 278.511719c-46.707031 0-84.574219 37.863281-84.574219 84.574219 0 46.707031 37.863281 84.570312 84.574219 84.570312 46.707031 0 84.570312-37.863281 84.570312-84.570312-.050781-46.6875-37.882812-84.519532-84.570312-84.574219zm0 157.144531c-40.082031 0-72.574219-32.492188-72.574219-72.570312 0-40.082032 32.492188-72.574219 72.574219-72.574219 40.078125 0 72.570312 32.492187 72.570312 72.574219-.042968 40.0625-32.507812 72.523437-72.570312 72.570312zm0 0" fill="#1ae5be"/><path d="m454.414062 281.542969c-.121093-.164063-.25-.324219-.390624-.476563-.152344-.140625-.3125-.269531-.476563-.390625-45.144531-44.78125-117.949219-44.78125-163.09375 0-.34375.226563-.640625.523438-.867187.867188-44.777344 45.144531-44.777344 117.945312 0 163.089843.226562.347657.523437.644532.871093.875 45.144531 44.777344 117.949219 44.777344 163.089844 0 .167969-.125.328125-.253906.480469-.394531.140625-.152343.269531-.3125.394531-.480469 44.773437-45.144531 44.773437-117.945312 0-163.089843zm16.15625 87.546875h5.25c-1.335937 23.402344-10.574218 45.660156-26.199218 63.136718l-3.679688-3.683593c-1.507812-1.550781-3.734375-2.167969-5.824218-1.617188-2.09375.550781-3.726563 2.183594-4.277344 4.277344-.550782 2.089844.066406 4.316406 1.617187 5.824219l3.679688 3.679687c-17.476563 15.625-39.734375 24.863281-63.136719 26.203125v-5.253906c0-3.3125-2.6875-6-6-6s-6 2.6875-6 6v5.253906c-23.402344-1.339844-45.660156-10.578125-63.136719-26.203125l3.679688-3.675781c2.34375-2.34375 2.34375-6.144531 0-8.488281-2.34375-2.339844-6.140625-2.34375-8.484375 0l-3.679688 3.679687c-15.625-17.476562-24.863281-39.734375-26.199218-63.136718h5.25c3.3125 0 6-2.6875 6-6s-2.6875-6-6-6h-5.25c1.335937-23.402344 10.574218-45.664063 26.199218-63.136719l3.679688 3.679687c1.507812 1.546875 3.734375 2.167969 5.824218 1.617188 2.09375-.550782 3.726563-2.183594 4.277344-4.277344.550782-2.089844-.066406-4.316406-1.617187-5.828125l-3.679688-3.675781c17.476563-15.625 39.734375-24.863282 63.136719-26.203125v5.253906c0 3.3125 2.6875 6 6 6s6-2.6875 6-6v-5.253906c23.402344 1.339843 45.660156 10.574219 63.136719 26.199219l-3.679688 3.679687c-1.550781 1.507813-2.167969 3.734375-1.617187 5.828125.550781 2.089844 2.183594 3.722656 4.277344 4.273438 2.089843.550781 4.316406-.066407 5.824218-1.617188l3.679688-3.675781c15.625 17.472656 24.863281 39.730469 26.199218 63.132812h-5.25c-3.3125 0-6 2.6875-6 6 0 3.316407 2.6875 6 6 6zm0 0" fill="#1ae5be"/><path d="m385.011719 321.902344v-7.328125c0-3.3125-2.6875-6-6-6s-6 2.6875-6 6v6.527343h-5.164063v-6.527343c0-3.3125-2.6875-6-6-6-3.316406 0-6 2.6875-6 6v6.527343h-7.417968c-3.3125 0-6 2.6875-6 6v72.527344c0 3.316406 2.6875 6 6 6h7.417968v5.964844c0 3.316406 2.683594 6 6 6 3.3125 0 6-2.683594 6-6v-5.964844h5.164063v5.964844c0 3.316406 2.6875 6 6 6s6-2.683594 6-6v-6.761719c9.769531-2.679687 16.546875-11.554687 16.558593-21.683593v-3.300782c.003907-6.261718-2.613281-12.238281-7.214843-16.484375 4.601562-4.246093 7.21875-10.222656 7.214843-16.484375v-3.296875c-.015624-10.128906-6.792968-19-16.558593-21.679687zm4.558593 57.949218v3.300782c-.007812 5.785156-4.695312 10.472656-10.480468 10.480468h-24.660156v-24.265624h24.660156c5.785156.007812 10.472656 4.695312 10.480468 10.484374zm-35.140624-22.484374v-24.265626h24.660156c5.785156.011719 10.472656 4.699219 10.480468 10.484376v3.300781c-.007812 5.785156-4.695312 10.472656-10.480468 10.484375zm0 0" fill="#1ae5be"/></svg>