<svg height="476pt" viewBox="0 -5 476.27751 476" width="476pt" xmlns="http://www.w3.org/2000/svg"><g fill="#d4e1f4"><path d="m291.960938 39.738281 25.117187-25.117187 10 10-25.117187 25.117187zm0 0"/><path d="m251.929688 16.675781-54.375 54.375h20l44.375-44.375zm0 0"/><path d="m338.492188 83.050781h-.1875l.09375.09375zm0 0"/><path d="m205.554688 83.050781h-.1875l.09375.09375zm0 0"/><path d="m133.726562 83.050781c-18.769531.023438-33.980468 15.230469-34 34v101.953125l20-3.113281v-98.839844c.019532-18.769531 15.230469-33.976562 34-34zm0 0"/><path d="m381.003906 180.234375c-11.75-.007813-22.828125 5.480469-29.949218 14.828125-7.117188 9.347656-9.457032 21.488281-6.328126 32.8125 4.519532-16.308594 19.351563-27.609375 36.277344-27.636719h83.273438v-20zm0 0"/></g><path d="m470.277344 169.234375h-10.550782v-52.183594c-.027343-25.390625-20.605468-45.96875-46-46h-23.25l-69.15625-69.15625c-2.34375-2.339843-6.140624-2.339843-8.484374 0l-29.359376 29.359375-27.304687-27.304687c-2.34375-2.34375-6.140625-2.34375-8.484375 0l-67.097656 67.101562h-46.863282c-25.394531.027344-45.972656 20.605469-46 46v107.6875h12v-107.6875c.019532-18.769531 15.230469-33.976562 34-34h51.640626l.09375.09375.09375-.09375h132.75l.09375.09375.09375-.09375h95.234374c18.769532.023438 33.976563 15.230469 34 34v52.183594h-66.722656c-27.324218.121094-49.414062 22.308594-49.414062 49.636719s22.089844 49.511718 49.414062 49.636718h66.722656v52.179688c-.023437 18.769531-15.230468 33.980469-34 34h-171v12h171c25.394532-.027344 45.972657-20.605469 46-46v-52.179688h10.550782c3.3125 0 6-2.6875 6-6v-87.273437c0-3.3125-2.6875-6-6-6zm-153.199219-154.609375 56.429687 56.425781h-50.230468l-31.316406-31.3125zm-119.523437 56.425781 54.375-54.375 54.375 54.375zm266.722656 185.457031h-83.273438c-20.710937-.109374-37.441406-16.925781-37.441406-37.636718 0-20.710938 16.730469-37.53125 37.441406-37.636719h83.273438zm0 0" fill="#0635c9"/><path d="m360.277344 218.875c.003906 12.351562 10.015625 22.363281 22.367187 22.359375 12.351563 0 22.363281-10.015625 22.359375-22.367187 0-12.351563-10.011718-22.359376-22.363281-22.359376-12.347656.011719-22.351563 10.019532-22.363281 22.367188zm22.363281-10.367188c5.722656 0 10.363281 4.636719 10.363281 10.359376.003906 5.722656-4.636718 10.367187-10.359375 10.367187-5.722656.003906-10.363281-4.636719-10.367187-10.359375.003906-5.722656 4.640625-10.359375 10.363281-10.367188zm0 0" fill="#0635c9"/><path d="m126 247.699219c-50.652344 0-91.714844 41.0625-91.714844 91.714843 0 50.652344 41.0625 91.714844 91.714844 91.714844s91.714844-41.0625 91.714844-91.714844c-.058594-50.628906-41.085938-91.65625-91.714844-91.714843zm0 171.429687c-44.023438 0-79.714844-35.691406-79.714844-79.714844 0-44.027343 35.691406-79.714843 79.714844-79.714843 44.027344 0 79.714844 35.6875 79.714844 79.714843-.050782 44.003907-35.710938 79.664063-79.714844 79.714844zm0 0" fill="#1ae5be"/><path d="m215.515625 250.832031c-.246094-.371093-.5625-.6875-.933594-.933593-49.035156-48.644532-128.125-48.644532-177.160156 0-.179687.128906-.351563.269531-.515625.417968-.148438.164063-.289062.335938-.417969.515625-48.652343 49.035157-48.652343 128.128907 0 177.164063.128907.179687.265625.347656.417969.511718.160156.148438.332031.289063.507812.417969 49.039063 48.648438 128.132813 48.648438 177.167969 0 .367188-.242187.683594-.558593.929688-.929687 48.648437-49.035156 48.648437-128.128906 0-177.164063zm18.023437 94.582031h6.308594c-1.355468 26.058594-11.648437 50.855469-29.140625 70.214844l-4.417969-4.421875c-2.34375-2.34375-6.144531-2.34375-8.488281 0s-2.34375 6.140625 0 8.484375l4.421875 4.421875c-19.363281 17.496094-44.15625 27.785157-70.214844 29.144531v-6.3125c0-3.3125-2.6875-6-6-6-3.316406 0-6 2.6875-6 6v6.3125c-26.058593-1.359374-50.855468-11.648437-70.214843-29.144531l4.417969-4.421875c2.34375-2.339844 2.34375-6.140625 0-8.484375s-6.140626-2.34375-8.484376 0l-4.421874 4.421875c-17.492188-19.359375-27.785157-44.15625-29.144532-70.214844h6.308594c3.316406 0 6-2.6875 6-6s-2.683594-6-6-6h-6.308594c1.355469-26.058593 11.648438-50.855468 29.140625-70.214843l4.421875 4.417969c2.34375 2.34375 6.140625 2.34375 8.484375.003906 2.34375-2.34375 2.34375-6.144532 0-8.488282l-4.421875-4.417968c19.363282-17.492188 44.160156-27.78125 70.214844-29.140625v6.3125c0 3.3125 2.6875 6 6 6 3.316406 0 6-2.6875 6-6v-6.3125c26.058594 1.359375 50.855469 11.652343 70.214844 29.144531l-4.417969 4.421875c-2.34375 2.34375-2.34375 6.140625 0 8.484375s6.140625 2.34375 8.484375 0l4.421875-4.421875c17.492187 19.363281 27.785156 44.15625 29.140625 70.214844h-6.304688c-3.3125 0-6 2.6875-6 6 0 3.316406 2.6875 6 6 6zm0 0" fill="#1ae5be"/><path d="m139.652344 294.597656v-8.105468c0-3.3125-2.6875-6-6-6-3.316406 0-6 2.6875-6 6v7.667968h-6.726563v-7.667968c0-3.3125-2.6875-6-6-6-3.316406 0-6 2.6875-6 6v7.667968h-8.640625c-3.3125 0-6 2.6875-6 6v79.121094c0 3.3125 2.6875 6 6 6h8.640625v7.050781c0 3.316407 2.683594 6 6 6 3.3125 0 6-2.683593 6-6v-7.050781h6.726563v7.050781c0 3.316407 2.683594 6 6 6 3.3125 0 6-2.683593 6-6v-7.488281c10.496094-2.121094 18.050781-11.335938 18.0625-22.046875v-6.59375c.003906-6.257813-2.613282-12.234375-7.214844-16.480469 4.601562-4.25 7.21875-10.226562 7.214844-16.484375v-6.59375c-.011719-10.710937-7.566406-19.929687-18.0625-22.046875zm6.0625 61.605469v6.59375c-.007813 5.785156-4.695313 10.476563-10.480469 10.484375h-28.949219v-27.558594h28.949219c5.785156.007813 10.472656 4.695313 10.480469 10.480469zm-39.429688-22.480469v-27.5625h28.949219c5.785156.007813 10.472656 4.699219 10.480469 10.484375v6.59375c-.007813 5.785157-4.695313 10.472657-10.480469 10.484375zm0 0" fill="#1ae5be"/><path d="m360.207031 218.1875c0 12.351562 10.011719 22.367188 22.363281 22.367188 12.351563 0 22.367188-10.011719 22.367188-22.363282 0-12.351562-10.011719-22.367187-22.363281-22.367187-12.347657.015625-22.351563 10.019531-22.367188 22.363281zm22.367188-10.363281c5.722656 0 10.363281 4.640625 10.363281 10.367187 0 5.722656-4.640625 10.363282-10.367188 10.363282-5.722656 0-10.363281-4.640626-10.363281-10.367188.007813-5.71875 4.644531-10.355469 10.367188-10.363281zm0 0" fill="#0635c9"/></svg>